<?xml version="1.0" standalone="no"?>
<!DOCTYPE svg PUBLIC "-//W3C//DTD SVG 20010904//EN"
 "http://www.w3.org/TR/2001/REC-SVG-20010904/DTD/svg10.dtd">
<svg version="1.0" xmlns="http://www.w3.org/2000/svg"
 width="840.000000pt" height="1415.000000pt" viewBox="0 0 840.000000 1415.000000"
 preserveAspectRatio="xMidYMid meet">

<g transform="translate(0.000000,1415.000000) scale(0.100000,-0.100000)"
fill="#000000" stroke="none">
<path d="M5575 13729 c-595 -33 -1147 -201 -1591 -485 -164 -105 -269 -189
-418 -334 -217 -211 -380 -433 -514 -697 -169 -332 -262 -642 -324 -1078 -21
-143 -22 -193 -25 -1107 l-4 -958 -1000 0 -999 0 0 -1335 0 -1335 1000 0 1000
0 0 -3000 0 -3000 1330 0 1330 0 2 3003 3 3002 1023 3 c562 1 1022 5 1022 10
0 4 68 597 150 1317 82 721 150 1316 150 1323 0 9 -242 12 -1175 12 l-1175 0
0 708 c0 735 8 989 35 1131 69 362 264 532 685 597 88 14 226 17 838 21 l732
5 0 1058 0 1057 -72 7 c-813 72 -1555 100 -2003 75z"/>
</g>
</svg>
