<?xml version="1.0" standalone="no"?>
<!DOCTYPE svg PUBLIC "-//W3C//DTD SVG 20010904//EN"
 "http://www.w3.org/TR/2001/REC-SVG-20010904/DTD/svg10.dtd">
<svg version="1.0" xmlns="http://www.w3.org/2000/svg"
 width="720.000000pt" height="754.000000pt" viewBox="0 0 720.000000 754.000000"
 preserveAspectRatio="xMidYMid meet">

<g transform="translate(0.000000,754.000000) scale(0.100000,-0.100000)"
fill="#000000" stroke="none">
<path d="M1759 7186 c-2 -2 -40 -9 -83 -15 -81 -11 -106 -18 -261 -72 -49 -17
-101 -33 -115 -36 -14 -3 -32 -11 -40 -17 -8 -7 -40 -23 -70 -36 -108 -49
-290 -162 -359 -224 -170 -154 -316 -318 -376 -426 -6 -10 -16 -24 -22 -31 -6
-8 -36 -62 -66 -122 -79 -153 -154 -385 -179 -552 -19 -133 -19 -3645 0 -3755
33 -185 67 -309 107 -397 8 -17 15 -35 15 -40 0 -16 103 -215 138 -266 18 -27
32 -50 32 -52 0 -14 154 -202 214 -260 133 -130 278 -244 366 -289 30 -15 62
-31 70 -36 84 -52 283 -126 425 -160 197 -47 74 -45 2035 -45 1910 0 1889 0
2035 40 166 47 203 58 232 71 17 8 35 14 41 14 9 0 206 98 247 123 55 34 163
109 186 129 14 13 53 46 85 73 105 89 200 196 284 319 33 48 60 89 60 91 0 2
13 23 29 47 16 24 39 68 52 98 12 30 27 61 33 69 5 7 22 47 36 90 15 42 32 89
38 104 7 16 12 37 12 48 0 11 7 36 15 55 16 40 32 139 45 289 11 129 12 3346
0 3485 -9 113 -34 283 -45 300 -3 5 -10 31 -15 58 -9 48 -30 113 -55 169 -8
17 -15 37 -15 45 0 8 -7 23 -15 34 -8 10 -15 24 -15 31 0 6 -18 42 -39 80 -21
38 -53 94 -69 125 -47 87 -150 213 -268 330 -98 96 -225 203 -264 221 -8 4
-42 23 -75 42 -71 41 -226 116 -275 134 -19 7 -64 23 -100 35 -97 35 -165 53
-262 70 -77 14 -298 16 -1916 16 -1006 0 -1831 -2 -1833 -4z m3761 -423 c89
-20 132 -34 207 -69 17 -8 38 -14 46 -14 9 0 18 -4 22 -9 3 -5 33 -23 68 -41
34 -17 71 -36 81 -43 105 -65 272 -204 321 -267 22 -28 56 -70 75 -94 52 -64
170 -272 170 -299 0 -5 6 -23 14 -40 29 -67 55 -156 72 -252 18 -95 19 -190
19 -1885 0 -1707 -1 -1788 -19 -1865 -10 -44 -25 -98 -32 -120 -8 -23 -14 -46
-14 -53 0 -14 -32 -91 -55 -134 -8 -14 -15 -32 -15 -40 -1 -13 -51 -96 -124
-205 -40 -59 -188 -212 -261 -271 -22 -18 -53 -42 -68 -55 -42 -33 -92 -62
-192 -111 -102 -50 -195 -81 -375 -123 -70 -17 -184 -18 -1860 -18 l-1785 0
-100 22 c-172 37 -382 116 -445 167 -8 7 -26 17 -40 23 -54 23 -226 173 -312
271 -90 103 -238 347 -238 392 0 9 -4 20 -8 25 -12 14 -47 125 -69 220 -17 76
-18 168 -18 1905 0 1739 1 1828 18 1895 25 95 59 207 68 225 4 8 18 38 30 65
12 28 31 68 42 90 19 37 34 60 126 190 49 70 172 190 266 261 77 57 215 144
231 144 4 0 36 14 71 30 106 50 184 73 343 100 25 4 855 7 1845 6 l1800 -1 95
-22z"/>
<path d="M5318 5975 c-144 -39 -243 -134 -289 -277 -10 -33 -19 -80 -19 -104
0 -60 32 -172 63 -220 33 -51 102 -116 152 -142 40 -21 154 -52 191 -52 33 0
136 29 184 51 44 21 160 131 160 152 0 6 7 18 15 27 8 9 23 53 32 98 16 77 16
84 -1 158 -22 91 -43 131 -110 201 -96 102 -245 145 -378 108z"/>
<path d="M3355 5363 c-161 -32 -261 -57 -282 -70 -12 -7 -27 -13 -34 -13 -25
0 -300 -143 -363 -189 -129 -94 -242 -197 -308 -281 -96 -122 -136 -178 -142
-197 -4 -13 -11 -23 -16 -23 -5 0 -12 -10 -16 -22 -3 -13 -12 -30 -18 -38 -7
-8 -29 -55 -50 -105 -21 -49 -44 -103 -51 -120 -15 -34 -26 -75 -60 -225 -21
-90 -24 -131 -25 -290 0 -194 9 -267 55 -445 54 -208 145 -386 298 -590 35
-47 210 -219 247 -243 14 -9 53 -38 86 -64 34 -27 64 -48 67 -48 3 0 29 -16
58 -35 30 -19 60 -35 67 -35 7 0 30 -9 50 -19 117 -61 302 -120 376 -121 17
-1 58 -7 91 -15 82 -20 329 -20 437 0 153 28 273 57 318 77 25 11 54 24 65 28
11 5 42 18 69 29 27 12 54 21 60 21 16 0 192 117 258 171 112 92 235 212 272
265 36 51 140 208 153 229 14 22 12 18 60 135 19 47 41 99 48 115 13 31 43
148 70 274 21 100 20 355 -1 470 -26 139 -56 264 -70 293 -8 15 -14 34 -14 43
0 16 -69 163 -118 250 -129 230 -360 461 -587 587 -83 46 -234 118 -248 118
-7 0 -17 4 -23 9 -11 12 -142 47 -209 56 -27 4 -78 14 -113 22 -80 18 -358 15
-457 -4z m505 -417 c58 -13 118 -28 133 -34 16 -7 34 -12 40 -13 7 0 48 -20
92 -44 44 -25 91 -49 104 -55 38 -17 150 -107 222 -179 81 -81 156 -178 194
-251 51 -96 85 -169 85 -181 0 -6 6 -25 14 -42 61 -143 78 -474 32 -647 -44
-168 -85 -263 -171 -395 -106 -163 -314 -345 -471 -415 -27 -12 -62 -27 -79
-35 -91 -41 -118 -48 -265 -75 -25 -5 -110 -9 -190 -9 -118 -1 -167 4 -260 24
-138 29 -168 39 -288 100 -135 68 -257 164 -365 286 -26 30 -53 61 -60 69 -33
37 -157 264 -157 287 0 7 -6 27 -14 45 -8 18 -24 76 -36 128 -18 80 -22 126
-22 280 0 167 3 193 25 270 76 260 194 455 369 611 36 32 71 59 76 59 5 0 12
7 16 15 3 8 10 15 15 15 6 0 29 13 53 28 130 86 291 147 468 175 14 2 95 5
180 5 126 1 174 -3 260 -22z"/>
</g>
</svg>
