<?xml version="1.0" standalone="no"?>
<!DOCTYPE svg PUBLIC "-//W3C//DTD SVG 20010904//EN"
 "http://www.w3.org/TR/2001/REC-SVG-20010904/DTD/svg10.dtd">
<svg version="1.0" xmlns="http://www.w3.org/2000/svg"
 width="860.000000pt" height="740.000000pt" viewBox="0 0 860.000000 740.000000"
 preserveAspectRatio="xMidYMid meet">

<g transform="translate(0.000000,740.000000) scale(0.100000,-0.100000)"
fill="#000000" stroke="none">
<path d="M5720 6993 c-102 -10 -205 -27 -290 -48 -492 -125 -917 -495 -1108
-966 -109 -268 -148 -579 -107 -853 9 -55 17 -110 18 -121 2 -19 -3 -20 -68
-17 -103 4 -333 31 -465 53 -852 144 -1627 511 -2290 1083 -132 114 -372 356
-470 474 -41 50 -79 89 -85 88 -16 -3 -101 -182 -134 -281 -114 -342 -117
-692 -9 -1035 40 -129 143 -335 225 -450 77 -108 258 -293 351 -360 l63 -45
-46 -3 c-65 -4 -265 32 -381 69 -54 17 -145 53 -202 79 l-102 49 0 -49 c0
-163 48 -402 115 -571 132 -335 382 -627 697 -814 132 -79 402 -184 472 -185
41 0 -1 -19 -76 -34 -179 -37 -425 -41 -595 -10 -18 4 -33 3 -33 0 0 -22 79
-206 122 -283 261 -473 750 -792 1292 -842 54 -6 100 -12 102 -14 6 -6 -208
-157 -316 -223 -135 -81 -411 -214 -571 -273 -140 -52 -380 -118 -528 -146
-252 -46 -603 -66 -845 -46 -77 6 -141 10 -142 8 -9 -8 294 -180 461 -262 728
-358 1513 -514 2338 -465 1404 84 2593 716 3412 1815 479 642 799 1418 914
2215 32 221 43 372 44 617 l0 232 45 32 c128 92 338 283 465 424 101 112 303
372 295 380 -2 3 -48 -13 -102 -35 -106 -43 -305 -107 -431 -139 -86 -22 -346
-71 -373 -71 -9 0 22 26 69 57 48 33 142 115 220 193 148 147 240 273 318 434
48 98 94 216 85 216 -3 0 -36 -17 -72 -39 -244 -141 -627 -286 -904 -341 l-58
-11 -82 76 c-224 205 -510 353 -793 409 -155 30 -324 41 -445 29z m360 -289
c47 -8 131 -30 187 -49 213 -71 363 -166 548 -346 l130 -127 139 29 c76 16
155 33 174 39 20 5 38 7 41 4 7 -6 -69 -79 -302 -293 -92 -85 -164 -157 -160
-161 14 -11 200 -59 295 -76 70 -12 123 -15 210 -10 65 4 126 9 135 13 33 11
-6 -22 -140 -119 l-128 -93 -3 -350 c-2 -368 -13 -494 -67 -780 -129 -688
-417 -1348 -828 -1900 -601 -807 -1411 -1349 -2366 -1585 -346 -86 -622 -120
-1020 -127 -399 -7 -641 12 -975 78 -177 35 -523 129 -543 149 -5 4 52 22 125
39 431 104 875 306 1218 554 90 65 669 515 708 551 l24 21 -449 11 c-481 13
-531 18 -701 73 -263 87 -502 254 -659 465 -13 16 -23 33 -23 37 0 3 32 9 71
13 39 3 113 15 163 26 97 21 1126 358 1126 369 0 4 -177 37 -392 75 -771 135
-781 138 -963 226 -288 139 -549 417 -661 705 -48 121 -49 128 -27 121 44 -13
197 -36 303 -46 131 -11 1010 -14 1010 -2 0 4 -40 29 -88 56 -191 109 -637
400 -768 502 -196 152 -359 379 -442 615 -57 162 -76 276 -77 454 0 138 15
290 32 318 2 4 59 -45 126 -109 826 -792 1919 -1275 3062 -1353 214 -15 455
-24 455 -18 0 3 -18 81 -40 174 -61 250 -73 332 -73 483 1 380 147 720 425
986 319 304 748 433 1188 358z"/>
</g>
</svg>
